<?xml version="1.0" encoding="UTF-8"?>
<svg xmlns="http://www.w3.org/2000/svg" xmlns:xlink="http://www.w3.org/1999/xlink" width="90.1pt" height="63.6pt" viewBox="0 0 90.1 63.6" version="1.1">
<defs>
<clipPath id="clip1">
  <path d="M 21 59 L 76 59 L 76 63.601563 L 21 63.601563 Z M 21 59 "/>
</clipPath>
</defs>
<g id="surface1">
<path style=" stroke:none;fill-rule:evenodd;fill:rgb(13.719177%,12.156677%,12.547302%);fill-opacity:1;" d="M 19.394531 52.316406 L 19.394531 46.105469 L 21.28125 46.105469 L 22.394531 50.34375 L 23.496094 46.105469 L 25.382813 46.105469 L 25.382813 52.316406 L 24.222656 52.316406 L 24.21875 47.425781 L 22.992188 52.316406 L 21.78125 52.316406 L 20.5625 47.425781 L 20.558594 52.316406 Z M 27.519531 49.207031 L 26.441406 49.011719 C 26.5625 48.570313 26.773438 48.246094 27.070313 48.035156 C 27.367188 47.828125 27.808594 47.71875 28.394531 47.71875 C 28.921875 47.71875 29.320313 47.78125 29.582031 47.90625 C 29.839844 48.03125 30.023438 48.191406 30.128906 48.386719 C 30.234375 48.582031 30.289063 48.933594 30.289063 49.457031 L 30.269531 50.839844 C 30.269531 51.234375 30.289063 51.527344 30.328125 51.714844 C 30.363281 51.902344 30.433594 52.105469 30.539063 52.316406 L 29.359375 52.316406 C 29.328125 52.242188 29.289063 52.128906 29.246094 51.972656 C 29.226563 51.902344 29.210938 51.855469 29.203125 51.835938 C 29 52.03125 28.78125 52.179688 28.550781 52.28125 C 28.320313 52.378906 28.074219 52.429688 27.8125 52.429688 C 27.351563 52.429688 26.988281 52.304688 26.71875 52.054688 C 26.453125 51.804688 26.320313 51.484375 26.320313 51.101563 C 26.320313 50.847656 26.382813 50.621094 26.503906 50.421875 C 26.625 50.222656 26.792969 50.070313 27.015625 49.964844 C 27.234375 49.859375 27.546875 49.765625 27.960938 49.6875 C 28.515625 49.585938 28.902344 49.484375 29.117188 49.394531 L 29.117188 49.273438 C 29.117188 49.042969 29.058594 48.878906 28.945313 48.777344 C 28.832031 48.679688 28.617188 48.628906 28.304688 48.628906 C 28.089844 48.628906 27.925781 48.671875 27.808594 48.757813 C 27.6875 48.839844 27.59375 48.992188 27.519531 49.207031 Z M 29.117188 50.167969 C 28.964844 50.21875 28.722656 50.277344 28.390625 50.347656 C 28.0625 50.417969 27.84375 50.488281 27.742188 50.554688 C 27.589844 50.667969 27.511719 50.804688 27.511719 50.976563 C 27.511719 51.140625 27.574219 51.285156 27.695313 51.40625 C 27.820313 51.527344 27.980469 51.589844 28.171875 51.589844 C 28.386719 51.589844 28.589844 51.519531 28.785156 51.378906 C 28.929688 51.269531 29.023438 51.140625 29.070313 50.984375 C 29.101563 50.882813 29.117188 50.6875 29.117188 50.402344 Z M 35.589844 52.316406 L 34.488281 52.316406 L 34.488281 51.65625 C 34.304688 51.914063 34.085938 52.105469 33.835938 52.238281 C 33.585938 52.367188 33.332031 52.429688 33.078125 52.429688 C 32.558594 52.429688 32.117188 52.222656 31.746094 51.804688 C 31.375 51.386719 31.191406 50.804688 31.191406 50.058594 C 31.191406 49.292969 31.371094 48.714844 31.730469 48.316406 C 32.089844 47.917969 32.546875 47.71875 33.09375 47.71875 C 33.597656 47.71875 34.035156 47.929688 34.402344 48.347656 L 34.402344 46.105469 L 35.589844 46.105469 Z M 32.414063 49.980469 C 32.414063 50.464844 32.480469 50.808594 32.613281 51.023438 C 32.804688 51.339844 33.074219 51.492188 33.417969 51.492188 C 33.691406 51.492188 33.921875 51.378906 34.113281 51.140625 C 34.308594 50.90625 34.402344 50.558594 34.402344 50.09375 C 34.402344 49.578125 34.308594 49.207031 34.125 48.972656 C 33.9375 48.742188 33.699219 48.628906 33.410156 48.628906 C 33.125 48.628906 32.890625 48.742188 32.699219 48.96875 C 32.511719 49.195313 32.414063 49.53125 32.414063 49.980469 Z M 39.367188 50.894531 L 40.554688 51.09375 C 40.402344 51.53125 40.160156 51.859375 39.832031 52.089844 C 39.503906 52.316406 39.089844 52.429688 38.597656 52.429688 C 37.816406 52.429688 37.234375 52.175781 36.859375 51.664063 C 36.5625 51.253906 36.414063 50.734375 36.414063 50.109375 C 36.414063 49.363281 36.609375 48.777344 37 48.355469 C 37.386719 47.929688 37.882813 47.71875 38.476563 47.71875 C 39.144531 47.71875 39.671875 47.941406 40.0625 48.382813 C 40.445313 48.828125 40.632813 49.503906 40.613281 50.417969 L 37.636719 50.417969 C 37.648438 50.769531 37.742188 51.046875 37.925781 51.242188 C 38.109375 51.4375 38.335938 51.539063 38.609375 51.539063 C 38.796875 51.539063 38.953125 51.488281 39.078125 51.386719 C 39.203125 51.285156 39.300781 51.121094 39.367188 50.894531 Z M 39.433594 49.6875 C 39.425781 49.34375 39.335938 49.082031 39.167969 48.902344 C 39 48.71875 38.792969 48.628906 38.550781 48.628906 C 38.292969 48.628906 38.078125 48.726563 37.910156 48.914063 C 37.738281 49.105469 37.65625 49.363281 37.660156 49.6875 Z M 44 46.105469 L 45.1875 46.105469 L 45.1875 47.207031 L 44 47.207031 Z M 44 47.8125 L 45.1875 47.8125 L 45.1875 52.316406 L 44 52.316406 Z M 50.507813 52.316406 L 49.316406 52.316406 L 49.316406 50.023438 C 49.316406 49.535156 49.292969 49.222656 49.242188 49.085938 C 49.191406 48.9375 49.105469 48.832031 48.992188 48.753906 C 48.875 48.667969 48.738281 48.628906 48.574219 48.628906 C 48.367188 48.628906 48.179688 48.6875 48.015625 48.800781 C 47.847656 48.910156 47.734375 49.0625 47.675781 49.246094 C 47.613281 49.433594 47.582031 49.777344 47.582031 50.28125 L 47.582031 52.316406 L 46.394531 52.316406 L 46.394531 47.8125 L 47.496094 47.8125 L 47.496094 48.476563 C 47.890625 47.96875 48.386719 47.71875 48.988281 47.71875 C 49.25 47.71875 49.492188 47.765625 49.710938 47.859375 C 49.929688 47.960938 50.09375 48.078125 50.207031 48.222656 C 50.320313 48.371094 50.398438 48.535156 50.441406 48.722656 C 50.484375 48.910156 50.507813 49.175781 50.507813 49.523438 Z M 54.089844 46.105469 L 55.347656 46.105469 L 55.347656 52.316406 L 54.089844 52.316406 Z M 60.628906 52.316406 L 59.441406 52.316406 L 59.441406 50.023438 C 59.441406 49.535156 59.414063 49.222656 59.363281 49.085938 C 59.3125 48.9375 59.230469 48.832031 59.113281 48.753906 C 59 48.667969 58.859375 48.628906 58.699219 48.628906 C 58.488281 48.628906 58.304688 48.6875 58.136719 48.800781 C 57.972656 48.910156 57.859375 49.0625 57.796875 49.246094 C 57.734375 49.433594 57.707031 49.777344 57.707031 50.28125 L 57.707031 52.316406 L 56.515625 52.316406 L 56.515625 47.8125 L 57.621094 47.8125 L 57.621094 48.476563 C 58.015625 47.96875 58.511719 47.71875 59.109375 47.71875 C 59.375 47.71875 59.617188 47.765625 59.832031 47.859375 C 60.054688 47.960938 60.21875 48.078125 60.328125 48.222656 C 60.441406 48.371094 60.519531 48.535156 60.5625 48.722656 C 60.609375 48.910156 60.628906 49.175781 60.628906 49.523438 Z M 65.964844 52.316406 L 64.863281 52.316406 L 64.863281 51.65625 C 64.679688 51.914063 64.460938 52.105469 64.210938 52.238281 C 63.960938 52.367188 63.707031 52.429688 63.453125 52.429688 C 62.933594 52.429688 62.492188 52.222656 62.121094 51.804688 C 61.75 51.386719 61.566406 50.804688 61.566406 50.058594 C 61.566406 49.292969 61.746094 48.714844 62.105469 48.316406 C 62.464844 47.917969 62.921875 47.71875 63.46875 47.71875 C 63.972656 47.71875 64.410156 47.929688 64.777344 48.347656 L 64.777344 46.105469 L 65.964844 46.105469 Z M 62.789063 49.980469 C 62.789063 50.464844 62.855469 50.808594 62.988281 51.023438 C 63.179688 51.339844 63.449219 51.492188 63.792969 51.492188 C 64.066406 51.492188 64.300781 51.378906 64.488281 51.140625 C 64.683594 50.90625 64.777344 50.558594 64.777344 50.09375 C 64.777344 49.578125 64.683594 49.207031 64.5 48.972656 C 64.3125 48.742188 64.074219 48.628906 63.785156 48.628906 C 63.5 48.628906 63.265625 48.742188 63.074219 48.96875 C 62.886719 49.195313 62.789063 49.53125 62.789063 49.980469 Z M 67.136719 46.105469 L 68.324219 46.105469 L 68.324219 47.207031 L 67.136719 47.207031 Z M 67.136719 47.8125 L 68.324219 47.8125 L 68.324219 52.316406 L 67.136719 52.316406 Z M 70.433594 49.207031 L 69.355469 49.011719 C 69.480469 48.570313 69.6875 48.246094 69.984375 48.035156 C 70.28125 47.828125 70.722656 47.71875 71.308594 47.71875 C 71.835938 47.71875 72.234375 47.78125 72.496094 47.90625 C 72.753906 48.03125 72.9375 48.191406 73.042969 48.386719 C 73.148438 48.582031 73.203125 48.933594 73.203125 49.457031 L 73.183594 50.839844 C 73.183594 51.234375 73.203125 51.527344 73.242188 51.714844 C 73.277344 51.902344 73.347656 52.105469 73.453125 52.316406 L 72.273438 52.316406 C 72.242188 52.242188 72.203125 52.128906 72.160156 51.972656 C 72.140625 51.902344 72.125 51.855469 72.117188 51.835938 C 71.914063 52.03125 71.699219 52.179688 71.464844 52.28125 C 71.234375 52.378906 70.988281 52.429688 70.726563 52.429688 C 70.265625 52.429688 69.902344 52.304688 69.636719 52.054688 C 69.367188 51.804688 69.234375 51.484375 69.234375 51.101563 C 69.234375 50.847656 69.296875 50.621094 69.417969 50.421875 C 69.539063 50.222656 69.707031 50.070313 69.929688 49.964844 C 70.148438 49.859375 70.460938 49.765625 70.875 49.6875 C 71.429688 49.585938 71.816406 49.484375 72.03125 49.394531 L 72.03125 49.273438 C 72.03125 49.042969 71.972656 48.878906 71.859375 48.777344 C 71.746094 48.679688 71.53125 48.628906 71.21875 48.628906 C 71.007813 48.628906 70.839844 48.671875 70.722656 48.757813 C 70.601563 48.839844 70.507813 48.992188 70.433594 49.207031 Z M 72.03125 50.167969 C 71.878906 50.21875 71.636719 50.277344 71.304688 50.347656 C 70.976563 50.417969 70.757813 50.488281 70.65625 50.554688 C 70.503906 50.667969 70.425781 50.804688 70.425781 50.976563 C 70.425781 51.140625 70.488281 51.285156 70.609375 51.40625 C 70.734375 51.527344 70.894531 51.589844 71.085938 51.589844 C 71.300781 51.589844 71.503906 51.519531 71.699219 51.378906 C 71.84375 51.269531 71.9375 51.140625 71.984375 50.984375 C 72.015625 50.882813 72.03125 50.6875 72.03125 50.402344 Z M 72.03125 50.167969 "/>
<path style=" stroke:none;fill-rule:evenodd;fill:rgb(13.719177%,12.156677%,12.547302%);fill-opacity:1;" d="M 13.179688 28.609375 C 11.160156 29.039063 6.878906 29.726563 5.527344 27.578125 C 4.632813 26.152344 5.640625 26.765625 3.65625 25.535156 C 0.742188 23.71875 0.078125 20.34375 0.808594 17.464844 C 1.675781 14.019531 4.621094 12.132813 7.855469 11.089844 C 11.480469 9.921875 14.875 9.972656 18.574219 9.734375 C 20.347656 9.621094 22.007813 9.378906 24.375 8.675781 C 28.195313 7.539063 29.144531 6.851563 33.394531 6.890625 C 36.648438 6.921875 40.238281 7.296875 43.894531 7.339844 C 47.03125 7.367188 50.035156 7.027344 53.128906 6.550781 C 54.96875 6.269531 56.828125 5.925781 58.714844 5.527344 C 60.089844 5.234375 61.105469 5.007813 61.894531 3.714844 C 62.703125 2.398438 63.96875 1.78125 65.59375 1.722656 C 66.289063 1.695313 66.992188 1.84375 67.667969 1.882813 C 68.796875 1.953125 69.265625 1.628906 70.214844 1.101563 C 71.394531 0.453125 71.921875 0.492188 73.21875 0.457031 C 74.035156 0.425781 74.851563 0.402344 75.679688 0.292969 C 76.515625 0.179688 77.195313 -0.0585938 78.054688 0.203125 C 79.414063 0.609375 78.984375 1.140625 79.445313 1.644531 C 79.851563 2.089844 80.714844 1.972656 81.375 2.492188 C 82.640625 3.480469 82.039063 5.160156 82.839844 5.660156 C 83.320313 5.964844 83.894531 5.445313 84.449219 4.613281 C 84.617188 5.0625 84.691406 5.601563 84.5625 6.070313 C 84.300781 7.054688 83.746094 6.464844 84.5625 7.28125 C 85.851563 8.566406 85.648438 9.511719 86.015625 10.253906 C 86.179688 10.589844 86.894531 11.28125 87.191406 11.617188 C 87.828125 12.34375 88.457031 13.019531 89.074219 13.617188 C 89.898438 14.414063 90.195313 15.269531 88.988281 15.921875 C 88.433594 16.21875 88.699219 16.0625 88.347656 16.578125 C 88.070313 16.972656 87.75 17.210938 87.402344 17.34375 C 86.726563 17.609375 85.546875 17.5625 84.792969 17.550781 C 84.289063 17.542969 83.148438 17.59375 82.738281 17.914063 C 82.199219 18.332031 82.523438 19.1875 83.347656 18.898438 C 84.011719 18.664063 83.90625 18.269531 84.785156 18.828125 C 85.296875 19.144531 85.46875 19.609375 85.402344 20.042969 C 85.292969 20.769531 84.886719 20.53125 84.902344 21.523438 C 84.917969 22.34375 85.011719 23.390625 83.636719 23.445313 C 81.945313 23.511719 82.402344 23.65625 82.136719 22.585938 C 82.023438 22.128906 81.78125 21.925781 81.367188 22.085938 C 82.460938 24.792969 79.429688 23.902344 79.667969 26.226563 C 78.945313 25.867188 78.386719 25.050781 77.964844 23.84375 C 77.113281 25.128906 76.074219 25.996094 75.128906 27.078125 C 75.035156 26.488281 74.9375 25.902344 74.84375 25.316406 C 74.503906 26.421875 74.269531 27.648438 73.03125 28.589844 C 72.46875 29.019531 72.492188 28.742188 72.621094 29.453125 C 72.855469 30.777344 72.976563 32.175781 73.371094 33.1875 C 73.65625 33.921875 74.0625 34.152344 74.421875 34.777344 C 74.953125 35.703125 74.789063 36.382813 75.402344 36.503906 C 76.078125 36.636719 76.570313 36.414063 77.3125 36.882813 C 77.789063 37.179688 78.222656 38.113281 78.378906 38.652344 C 78.535156 39.171875 78.476563 39.554688 78.300781 39.835938 C 77.828125 40.582031 76.789063 40.402344 76.027344 40.382813 C 75.363281 40.367188 74.695313 40.347656 74.03125 40.332031 C 73.375 40.3125 72.382813 40.402344 71.871094 39.972656 C 71.203125 39.414063 71.257813 38.265625 70.738281 37.675781 C 70.390625 37.273438 69.683594 37.253906 69.164063 36.78125 C 68.90625 36.550781 68.675781 36.222656 68.503906 35.726563 C 68.191406 34.816406 68.324219 35.121094 67.59375 34.460938 C 66.910156 33.839844 66.273438 33.136719 65.75 32.386719 C 65.144531 31.519531 64.859375 30.320313 64.277344 29.695313 C 63.910156 29.292969 63.515625 29.195313 63.117188 29.15625 C 62.339844 29.085938 61.515625 29.070313 60.820313 28.679688 C 60.246094 28.355469 59.730469 27.855469 59.328125 27.507813 C 58.757813 27.015625 58.746094 27.054688 58.246094 27.675781 C 57.382813 28.742188 56.601563 30.65625 55.390625 32.300781 C 54.933594 32.914063 54.414063 33.40625 54.015625 34.0625 C 53.71875 34.558594 53.515625 35.058594 53.382813 35.554688 C 53.214844 36.1875 52.984375 36.578125 53.601563 37.003906 C 53.808594 37.140625 54.054688 37.300781 54.273438 37.515625 C 54.597656 37.839844 54.933594 37.933594 55.34375 38.105469 C 55.867188 38.328125 56.40625 38.679688 56.394531 39.214844 C 56.378906 40.269531 55.011719 40.589844 54.195313 40.691406 C 52.082031 41.003906 50.585938 40.890625 49.640625 40.296875 C 48.820313 39.78125 48.691406 39.222656 48.882813 38.453125 C 49.007813 37.960938 49.203125 37.882813 49.304688 37.597656 C 49.421875 37.269531 48.785156 37.367188 48.546875 36.753906 C 48.375 36.296875 48.394531 35.652344 48.710938 34.726563 C 49.265625 33.09375 49.351563 33.0625 49.632813 31.308594 C 49.683594 30.980469 49.75 30.652344 49.820313 30.332031 C 50.210938 28.550781 50.804688 26.9375 50.734375 26.054688 C 48.191406 26.273438 46.136719 26.328125 44.363281 25.765625 C 43.453125 25.476563 42.492188 24.988281 41.554688 24.652344 C 39.792969 24.015625 39.042969 23.664063 38.136719 25.6875 C 37.59375 26.894531 37.640625 28.929688 36.6875 30.628906 C 36.398438 31.144531 35.925781 31.527344 35.761719 32.042969 C 35.414063 33.128906 36.285156 34.0625 36.988281 34.769531 C 37.699219 35.484375 38.5625 36.136719 39.390625 36.359375 C 40.152344 36.558594 41.027344 36.347656 41.890625 36.53125 C 43.082031 36.789063 43.804688 38.183594 43.199219 39.207031 C 42.832031 39.832031 42.054688 39.859375 41.207031 39.859375 C 40.035156 39.867188 39.238281 40.128906 38.136719 40.203125 C 37.304688 40.253906 36.753906 40.164063 36.347656 39.898438 C 35.78125 39.527344 35.214844 38.660156 34.339844 38.0625 C 32.925781 37.097656 31.933594 36.492188 30.605469 35.355469 C 29.890625 34.742188 29.335938 34.222656 29.027344 33.648438 C 28.492188 32.667969 28.917969 31.535156 28.988281 30.441406 C 29.105469 28.726563 28.894531 27.457031 28.269531 26.734375 C 28.042969 26.382813 27.78125 26.222656 27.421875 26.734375 C 26.703125 27.398438 26.066406 27.484375 25.242188 27.429688 C 23.117188 27.988281 23.023438 30.0625 20.667969 30.820313 C 18.921875 30.96875 17.992188 33.277344 17.734375 35.429688 C 17.691406 35.78125 17.667969 36.140625 17.664063 36.492188 C 17.855469 36.902344 18 36.53125 18.441406 36.40625 C 19.890625 36.003906 21.882813 37.566406 21.65625 39.289063 C 21.519531 40.34375 20.429688 40.628906 18.144531 40.71875 C 17.144531 40.753906 16.414063 40.703125 15.875 40.566406 C 14.109375 40.136719 14.511719 39.003906 14.210938 37.753906 C 13.855469 36.292969 12.769531 35.917969 12.9375 34.1875 C 13.039063 33.121094 13.300781 32.621094 13.175781 31.410156 C 13.0625 30.296875 12.269531 29.382813 13.527344 28.527344 C 14 28.214844 14.628906 28.042969 15.21875 27.792969 C 14.996094 26.832031 15.300781 25.527344 15.878906 24.082031 C 16.300781 23.019531 16.722656 22.027344 17.136719 20.960938 C 17.570313 19.832031 18.175781 18.816406 18.894531 17.730469 C 19.511719 16.792969 19.972656 16.097656 20.476563 15.082031 C 20.890625 14.238281 21.285156 13.402344 21.746094 12.554688 C 16.871094 12.597656 13.191406 12.589844 10.808594 12.820313 C 7.484375 13.148438 3.699219 15.082031 2.957031 18.613281 C 2.460938 20.984375 3.945313 23.851563 6.363281 24.351563 C 6.996094 24.484375 7.757813 24.554688 8.484375 24.695313 C 10.214844 25.019531 12.523438 26.957031 13.179688 28.609375 Z M 13.179688 28.609375 "/>

</g>
</svg>
